PathFileType	4	(X/Y/Z)	/Users/itak/Documents/Research/Walk-IL/dataset/trc/00365_00011.trc
DataRate	CameraRate	NumFrames	NumMarkers	Units	OrigDataRate	OrigDataStartFrame	OrigNumFrames
100.000000	100.000000	4	56	mm	100.000000	131	351
Frame#	Time	RPSI			LPSI			L3			STRN			T10			C7			CLAV			RBAK			LBAK			LSHO			LUPA			LAEL			LAOL			LWTS			LWPS			LFRA			LIFD			LHPS			LHTS			RSHO			RUPA			RAEL			RAOL			RWTS			RWPS			RFRA			RIFD			RHTS			RHPS			RBHD			LFHD			RFHD			LBHD			LHIP			RHIP			RASI			LASI			LKNE			LTHI			LANK			LTIP			LTOE			LMT1			LMT5			LHEE			RKNE			RTHI			RTIP			RTOE			RMT1			RMT5			RANK			RHEE			*53			*54			*55			
		X1	Y1	Z1	X2	Y2	Z2	X3	Y3	Z3	X4	Y4	Z4	X5	Y5	Z5	X6	Y6	Z6	X7	Y7	Z7	X8	Y8	Z8	X9	Y9	Z9	X10	Y10	Z10	X11	Y11	Z11	X12	Y12	Z12	X13	Y13	Z13	X14	Y14	Z14	X15	Y15	Z15	X16	Y16	Z16	X17	Y17	Z17	X18	Y18	Z18	X19	Y19	Z19	X20	Y20	Z20	X21	Y21	Z21	X22	Y22	Z22	X23	Y23	Z23	X24	Y24	Z24	X25	Y25	Z25	X26	Y26	Z26	X27	Y27	Z27	X28	Y28	Z28	X29	Y29	Z29	X30	Y30	Z30	X31	Y31	Z31	X32	Y32	Z32	X33	Y33	Z33	X34	Y34	Z34	X35	Y35	Z35	X36	Y36	Z36	X37	Y37	Z37	X38	Y38	Z38	X39	Y39	Z39	X40	Y40	Z40	X41	Y41	Z41	X42	Y42	Z42	X43	Y43	Z43	X44	Y44	Z44	X45	Y45	Z45	X46	Y46	Z46	X47	Y47	Z47	X48	Y48	Z48	X49	Y49	Z49	X50	Y50	Z50	X51	Y51	Z51	X52	Y52	Z52	X53	Y53	Z53	X54	Y54	Z54	X55	Y55	Z55	X56	Y56	Z56	

132	1.31	210.2612457275391	939.052978515625	261.7566833496094	100.1418762207031	941.5400390625	192.4331207275391	162.7388153076172	997.3501586914062	238.4176940917969	245.7760925292969	1189.484619140625	27.11753273010254	155.5586700439453	1114.095825195312	247.2523040771484	146.3538360595703	1363.448120117188	206.8089752197266	214.8587341308594	1312.79150390625	65.86270141601562	194.8227386474609	1226.684204101562	277.8296813964844	51.24014663696289	1322.078125	181.0865936279297	28.65507316589355	1336.084838867188	81.44804382324219	-38.03941345214844	1217.954833984375	95.54790496826172	-48.01676559448242	1018.339050292969	126.8350067138672	3.561802387237549	1018.32421875	195.1254119873047	-10.4621000289917	755.362060546875	104.1565933227539	-69.68382263183594	759.408203125	139.9365386962891	-59.49455261230469	914.7662963867188	138.0499420166016	-11.0560131072998	602.7911376953125	161.7440643310547	-65.30125427246094	694.8568115234375	169.4444122314453	-26.31730079650879	678.3319702148438	122.2087783813477	316.5563354492188	1360.001098632812	221.6922760009766	371.4617309570312	1297.196655273438	256.6075744628906	448.9723510742188	1038.923095703125	260.99169921875	360.3422241210938	1015.422668457031	240.0725555419922	522.8740844726562	862.5765380859375	93.30013275146484	565.29150390625	839.6635131835938	152.9393005371094	485.8546752929688	981.3223266601562	236.1058807373047	580.3680419921875	708.144775390625	38.05657577514648	572.9107055664062	780.9837036132812	49.18502426147461	590.5855712890625	767.014404296875	114.6889419555664	249.0622711181641	1576.322265625	178.7319793701172	174.9213409423828	1577.7998046875	-16.27857971191406	270.0928344726562	1580.852783203125	17.34682083129883	106.7365417480469	1568.705444335938	157.0637054443359	61.34024047851562	892.0359497070312	57.24626159667969	344.0081481933594	882.1701049804688	256.5890197753906	368.543212890625	911.3103637695312	146.8699035644531	181.4329833984375	919.045654296875	-2.296994924545288	221.1175079345703	453.5477294921875	-50.05091094970703	168.4571380615234	585.081787109375	-38.02655410766602	271.0719604492188	45.22176361083984	35.12472152709961	242.4402008056641	228.7081451416016	-24.24586486816406	381.1256103515625	39.97011566162109	-150.0477752685547	402.4930114746094	24.0714054107666	-71.84741973876953	291.884521484375	42.28819274902344	-87.77397155761719	328.4906616210938	40.23587036132812	84.73659515380859	355.8987121582031	434.2790832519531	238.0046691894531	388.7455444335938	676.2147216796875	204.0048370361328	309.4320678710938	338.5357971191406	300.102294921875	150.6801300048828	33.47132873535156	427.0236206054688	103.0619735717773	73.85015106201172	415.6187133789062	161.3208312988281	96.18580627441406	516.56103515625	133.4654541015625	195.5521240234375	521.8807983398438	87.37290191650391	242.2271575927734	500.7198181152344	nan	nan	nan	nan	nan	nan	nan	nan	nan	
133	1.32	216.2598114013672	939.1634521484375	253.7388916015625	105.4161911010742	942.4345703125	185.3576049804688	168.0871276855469	998.6293334960938	230.6759338378906	250.2500457763672	1190.999633789062	18.93659400939941	160.9462432861328	1115.368286132812	239.0068359375	151.5288848876953	1364.822265625	199.2418518066406	219.6174468994141	1314.253662109375	57.97136306762695	200.2342224121094	1227.9677734375	269.7739868164062	56.21426773071289	1323.34619140625	173.7124481201172	33.46773910522461	1337.39208984375	74.066162109375	-32.64028549194336	1218.59814453125	86.92330932617188	-41.14321517944336	1018.275268554688	115.1159362792969	9.317574501037598	1017.932800292969	184.3190307617188	1.170652031898499	756.63720703125	87.48780822753906	-58.65102005004883	758.718017578125	122.4514617919922	-51.27502059936523	914.1936645507812	124.1131362915039	2.599225521087646	602.7155151367188	141.0611572265625	-53.42975616455078	693.5328979492188	150.4256591796875	-13.57472229003906	678.9782104492188	103.2900543212891	321.9082946777344	1361.311767578125	213.4509735107422	376.7315673828125	1298.333374023438	248.3354187011719	450.3538818359375	1038.92578125	253.8563385009766	361.4936828613281	1016.756652832031	232.6579132080078	521.748046875	859.1843872070312	88.53599548339844	563.713134765625	836.5283203125	148.6175537109375	486.3778381347656	980.490478515625	229.5836944580078	576.5303955078125	702.85546875	35.86154937744141	570.3587036132812	776.0372314453125	45.75266265869141	587.7452392578125	762.7868041992188	111.5258483886719	253.7069549560547	1577.03564453125	171.9340209960938	178.0402069091797	1580.7255859375	-22.43532943725586	273.4588623046875	1583.878662109375	10.48153114318848	111.2853164672852	1568.935546875	151.3265075683594	65.03681182861328	893.4453735351562	50.49579620361328	349.955078125	882.3037719726562	246.2175903320312	373.2210693359375	912.4850463867188	136.4928588867188	184.3348999023438	920.44677734375	-10.56072998046875	222.4961090087891	453.3761901855469	-53.69344711303711	170.5218963623047	585.4462280273438	-43.10880661010742	271.0931701660156	45.27852630615234	34.93151092529297	243.03662109375	228.5829620361328	-26.04458045959473	381.1311645507812	39.59810638427734	-150.1408843994141	402.5060119628906	24.21186637878418	-71.76662445068359	291.8671875	42.0847053527832	-87.97422790527344	328.4321899414062	40.37632369995117	84.64138031005859	370.0461730957031	435.0309753417969	217.8554840087891	397.0494384765625	677.3880615234375	189.5665130615234	323.2891540527344	339.9811706542969	280.8081970214844	160.1120147705078	34.4570198059082	416.6867370605469	113.4331207275391	78.97608947753906	405.2066955566406	173.9018249511719	103.2470016479492	504.0879211425781	148.5237731933594	203.7197875976562	507.837646484375	103.0588226318359	251.0133666992188	486.4732971191406	nan	nan	nan	nan	nan	nan	nan	nan	nan	
134	1.33	222.0890502929688	939.3526000976562	245.8712158203125	110.5332336425781	943.3275756835938	178.4691162109375	173.2140808105469	999.9776000976562	223.0993804931641	254.6811828613281	1192.541748046875	10.95738792419434	166.1546325683594	1116.750732421875	230.9952392578125	156.6577911376953	1366.291870117188	191.8280487060547	224.3275756835938	1315.758056640625	50.25444030761719	205.5186157226562	1229.334716796875	261.8570556640625	61.12475204467773	1324.742309570312	166.4812774658203	38.25114059448242	1338.809692382812	66.82200622558594	-27.33485794067383	1219.390258789062	78.41019439697266	-34.4786491394043	1018.392028808594	103.2725524902344	14.7678050994873	1017.568664550781	173.4737396240234	12.66891765594482	758.3770141601562	70.44572448730469	-47.77501678466797	758.4573974609375	104.4315948486328	-43.23779296875	913.8680419921875	109.9254608154297	15.89474105834961	603.1295776367188	119.4942855834961	-41.76201629638672	692.6338500976562	130.6853332519531	-1.020559191703796	680.16650390625	83.73522186279297	327.2181701660156	1362.6474609375	205.3872833251953	381.9222412109375	1299.478881835938	240.24951171875	451.8238830566406	1039.051513671875	246.7135467529297	362.7175903320312	1018.140869140625	225.3067932128906	520.7162475585938	855.7869262695312	84.08055114746094	562.1109619140625	833.399658203125	144.6935424804688	486.9549865722656	979.77685546875	223.1201629638672	572.7340087890625	697.5625610351562	34.24349594116211	567.9022827148438	771.0753173828125	42.82528305053711	584.8733520507812	758.5730590820312	108.890251159668	258.3818359375	1577.853515625	165.1915893554688	181.1193084716797	1583.618774414062	-28.47842979431152	276.7964477539062	1586.890991210938	3.690294981002808	115.8581466674805	1569.270629882812	145.6907348632812	68.60706329345703	894.8773193359375	43.95347213745117	355.721435546875	882.5673217773438	236.0017700195312	377.780517578125	913.8074340820312	126.2989501953125	187.0913543701172	921.824462890625	-18.56459617614746	223.4430694580078	453.0911865234375	-56.75709915161133	172.1934509277344	585.6676025390625	-47.53852844238281	271.0814819335938	45.26947784423828	34.8123779296875	243.3525085449219	228.4321594238281	-27.45102691650391	381.0307006835938	39.40897369384766	-150.2046508789062	402.4491882324219	24.42553901672363	-71.71209716796875	291.7526550292969	41.88215637207031	-88.12353515625	328.372802734375	40.48962783813477	84.58883666992188	383.8205871582031	436.286376953125	197.436767578125	405.178955078125	678.8980712890625	175.1512298583984	336.9498291015625	341.6578369140625	261.0010681152344	171.1595611572266	36.09947967529297	404.5309143066406	125.0950546264648	83.96171569824219	393.2044677734375	187.6394653320312	109.8349609375	490.072509765625	163.8738708496094	210.9817657470703	492.7984313964844	118.7339324951172	258.6498107910156	471.4682922363281	nan	nan	nan	nan	nan	nan	nan	nan	nan	
135	1.34	227.7979888916016	939.6779174804688	238.1141357421875	115.5320205688477	944.2662963867188	171.7826232910156	178.1666870117188	1001.380249023438	215.6718597412109	259.0686645507812	1194.120727539062	3.167896270751953	171.2010803222656	1118.22900390625	223.2151336669922	161.7324829101562	1367.843872070312	184.5645446777344	228.9827423095703	1317.310791015625	42.70637512207031	210.6825714111328	1230.77392578125	254.0647888183594	65.96628570556641	1326.256713867188	159.3922424316406	42.99543380737305	1340.334716796875	59.71952056884766	-22.13450050354004	1220.336547851562	70.01276397705078	-28.02620697021484	1018.709411621094	91.30863189697266	19.90192222595215	1017.252197265625	162.5842895507812	24.00135231018066	760.61376953125	53.09312438964844	-37.0759391784668	758.67236328125	85.93405151367188	-35.38396072387695	913.8202514648438	95.51900482177734	28.828369140625	604.0941772460938	97.11105346679688	-30.32645416259766	692.2155151367188	110.2711791992188	11.330641746521	681.94189453125	63.62009811401367	332.4717102050781	1364.010498046875	197.4974517822266	387.0220031738281	1300.639282226562	232.3403167724609	453.3916015625	1039.310302734375	239.5658264160156	364.0213928222656	1019.583374023438	218.0343170166016	519.7822875976562	852.416015625	79.92765045166016	560.514892578125	830.333251953125	141.1437835693359	487.5978698730469	979.203369140625	216.7143402099609	568.9713134765625	692.3134765625	33.18815231323242	565.5325317382812	766.1343383789062	40.38970947265625	581.995849609375	754.4346923828125	106.755973815918	263.0790405273438	1578.773559570312	158.5079040527344	184.1757965087891	1586.465942382812	-34.41740036010742	280.116455078125	1589.867431640625	-3.024482011795044	120.4455947875977	1569.722412109375	140.1416473388672	72.07113647460938	896.3603515625	37.6159782409668	361.3500671386719	883.025390625	225.9125518798828	382.2120361328125	915.290283203125	116.252571105957	189.6962127685547	923.1895751953125	-26.31639862060547	224.0216674804688	452.7337646484375	-59.32408142089844	173.5279846191406	585.7861938476562	-51.35431671142578	271.0491027832031	45.2162971496582	34.75073623657227	243.4380798339844	228.2767181396484	-28.52216911315918	380.868896484375	39.34489440917969	-150.2459259033203	402.3514404296875	24.66469955444336	-71.68376159667969	291.5753784179688	41.67879104614258	-88.23453521728516	328.31640625	40.58779907226562	84.56696319580078	397.1316223144531	438.0658264160156	176.8541717529297	413.1288757324219	680.7776489257812	160.7708587646484	350.3504333496094	343.5828247070312	240.7913055419922	183.8065948486328	38.27819442749023	390.5436401367188	138.0034790039062	88.57529449462891	379.61474609375	202.4333343505859	115.7299346923828	474.5918579101562	179.4344635009766	217.1764984130859	476.8463134765625	134.3241882324219	264.9900512695312	455.7848815917969	nan	nan	nan	nan	nan	nan	nan	nan	nan	
